<svg id="Layer_5" enable-background="new 0 0 64 64" height="512" viewBox="0 0 64 64" width="512" xmlns="http://www.w3.org/2000/svg"><g><path d="m27.594 46.638-2.187-.515-2.157 2.877 2.329 3.105z"/><path d="m16.406 46.638 2.015 5.467 2.329-3.105-2.157-2.877z"/><path d="m29 33c0-1.654-1.346-3-3-3h-6.303l-2.672-1.781c-.214-.143-.464-.219-.722-.219-.719 0-1.303.584-1.303 1.303v4.697c0 3.86 3.141 7 7 7s7-3.14 7-7z"/><path d="m24 44.667v-1.899c-.644.147-1.312.232-2 .232s-1.356-.085-2-.232v1.899l2 2.667z"/><path d="m13 29.303c0-1.822 1.481-3.303 3.303-3.303.654 0 1.288.192 1.832.555l2.168 1.445h5.697c2.454 0 4.49 1.781 4.911 4.116 1.344-1.735 2.089-3.873 2.089-6.116 0-4.962-4.037-9-9-9h-1c-2.817 0-5.509 1.346-7.2 3.6l-.229.305-.471.095c-2.376.475-4.1 2.578-4.1 5 0 2.189.716 4.275 2 5.987z"/><path d="m11.481 47.797c-4.994 1.175-8.481 5.578-8.481 10.707v2.496h6v-6h2v6h8.566l-5.121-13.901z"/><circle cx="47" cy="7" r="4"/><path d="m39 21h16c0-4.411-3.589-8-8-8s-8 3.589-8 8z"/><path d="m58 37h-20c-1.654 0-3 1.346-3 3v6.505c2.302.953 4.231 2.527 5.62 4.495h5.849l4.688 5.625c.197.238.489.375.8.375.575 0 1.043-.468 1.043-1.043v-4.957h5c1.654 0 3-1.346 3-3v-8c0-1.654-1.346-3-3-3zm-3 12h-14v-2h14zm4 0h-2v-2h2zm0-4h-22v-2h22zm0-4h-22v-2h22z"/><path d="m22 50.666-2.756 3.674 2.453 6.66h.605l2.453-6.66zm1 8.334h-2v-2h2zm-2-4v-2h2v2z"/><path d="m58 9h-5.35c-.384 1.082-1.067 2.02-1.954 2.717 3.688 1.473 6.304 5.075 6.304 9.283v2h-20v-2c0-4.208 2.616-7.81 6.304-9.283-.887-.697-1.57-1.635-1.954-2.717h-5.35c-1.654 0-3 1.346-3 3v7.695c1.075 1.53 1.771 3.342 1.949 5.305h8.051v4.957c0 .575.468 1.043 1.043 1.043.311 0 .603-.137.801-.375l4.687-5.625h8.469c1.654 0 3-1.346 3-3v-10c0-1.654-1.346-3-3-3z"/><path d="m32.519 47.797-2.963-.697-5.122 13.9h8.566v-6h2v6h6v-2.496c0-5.129-3.487-9.532-8.481-10.707z"/></g></svg>